# xmcd
#
# Track frame offsets:
#	150
#	11180
#	23427
#	37230
#	47225
#	60682
#	72695
#	85192
#	99122
#	113507
#	127535
#	141570
#	159490
#
# Disc length: 2265
#
# Revision: 3
# Processed by: cddbd v1.5.1PL0 Copyright (c) Steve Scherf et al.
# Submitted via: EasyCDDAExtractor 5.0.5.1
# Normalized: r2:DSETVAR1
#
DISCID=a908d70d
DTITLE=Various Artist - The Blues Collection-Disk 7
DYEAR=1996
DGENRE=Blues
TTITLE0=Elmore James - Madison Blues
TTITLE1=John Lee Hooker - I'm A Stranger
TTITLE2=Bo Diddley - Somebody's Cryin'
TTITLE3=Roy Milton - Red Light
TTITLE4=Johnny Otis - The Signifyin' Monkey
TTITLE5=Pee Wee Crayton - Need Your Love So Bad
TTITLE6=Charles Brown - Livin' In Misery
TTITLE7=Eddie "Clean Head" Vinson - Sugar
TTITLE8=Ray Charles - Blues Is My Middle Name
TTITLE9=Roy Milton - RM Blues
TTITLE10=Charles Brown - It's Gettin' To Be Evening
TTITLE11=Amos Milbourne - Bewildered
TTITLE12=B. B. King - Diamonds At Your Feet
EXTD=
EXTT0=
EXTT1=
EXTT2=
EXTT3=
EXTT4=
EXTT5=
EXTT6=
EXTT7=
EXTT8=
EXTT9=
EXTT10=
EXTT11=
EXTT12=
PLAYORDER=
